<svg width="24.000000" height="24.000000" viewBox="0 0 24 24" fill="none" xmlns="http://www.w3.org/2000/svg">
    <desc>
        Created with Pixso.
    </desc>
    <defs/>
    <g opacity="0.000000">
        <path id="Vector" d="M0 0L24 0L24 24L0 24L0 0Z" fill="#397DF6" fill-opacity="1.000000" fill-rule="evenodd"/>
    </g>
    <path id="Vector" d="M20.7109 19.29L17.3105 15.9C18.4062 14.5025 19.002 12.7767 19 11C19 9.41776 18.5312 7.87103 17.6523 6.55545C16.7734 5.23984 15.5234 4.21448 14.0605 3.60898C12.5996 3.00348 10.9902 2.84503 9.43945 3.15372C7.88672 3.4624 6.46289 4.22433 5.34375 5.34314C4.22461 6.46198 3.46289 7.88742 3.1543 9.43927C2.8457 10.9911 3.00391 12.5997 3.60938 14.0615C4.21484 15.5233 5.24023 16.7727 6.55469 17.6518C7.87109 18.5308 9.41797 19 11 19C12.7773 19.0022 14.502 18.407 15.9004 17.31L19.2891 20.71C19.3828 20.8037 19.4941 20.8781 19.6152 20.9289C19.7363 20.9797 19.8672 21.0058 20 21.0058C20.1328 21.0058 20.2637 20.9797 20.3848 20.9289C20.5059 20.8781 20.6172 20.8037 20.7109 20.71C20.8047 20.617 20.8789 20.5064 20.9297 20.3846C20.9805 20.2627 21.0059 20.132 21.0059 20C21.0059 19.868 20.9805 19.7373 20.9297 19.6154C20.8789 19.4936 20.8047 19.383 20.7109 19.29ZM5 11C5 9.81332 5.35156 8.65329 6.01172 7.6666C6.66992 6.6799 7.60742 5.91086 8.70312 5.45673C9.80078 5.00259 11.0059 4.88379 12.1699 5.1153C13.334 5.3468 14.4043 5.91824 15.2422 6.75735C16.082 7.59647 16.6523 8.66559 16.8848 9.82947C17.1172 10.9933 16.998 12.1997 16.543 13.2961C16.0898 14.3925 15.3203 15.3295 14.334 15.9888C13.3477 16.6481 12.1875 17 11 17C9.4082 17 7.88281 16.3679 6.75781 15.2426C5.63281 14.1174 5 12.5913 5 11Z" fill="#397DF6" fill-opacity="1.000000" fill-rule="nonzero"/>
</svg>
