<svg width="16" height="16" viewBox="0 0 16 16" fill="none" xmlns="http://www.w3.org/2000/svg">
<path d="M15.9999 1C15.9999 0.734784 15.8946 0.48043 15.707 0.292893C15.5195 0.105357 15.2652 0 14.9999 0H9.99994C9.73472 0 9.48037 0.105357 9.29283 0.292893C9.1053 0.48043 8.99994 0.734784 8.99994 1C8.99994 1.26522 9.1053 1.51957 9.29283 1.70711C9.48037 1.89464 9.73472 2 9.99994 2H12.5699L9.28994 5.29C9.19621 5.38296 9.12182 5.49356 9.07105 5.61542C9.02028 5.73728 8.99414 5.86799 8.99414 6C8.99414 6.13201 9.02028 6.26272 9.07105 6.38458C9.12182 6.50644 9.19621 6.61704 9.28994 6.71C9.3829 6.80373 9.4935 6.87812 9.61536 6.92889C9.73722 6.97966 9.86793 7.0058 9.99994 7.0058C10.132 7.0058 10.2627 6.97966 10.3845 6.92889C10.5064 6.87812 10.617 6.80373 10.7099 6.71L13.9999 3.42V6C13.9999 6.26522 14.1053 6.51957 14.2928 6.70711C14.4804 6.89464 14.7347 7 14.9999 7C15.2652 7 15.5195 6.89464 15.707 6.70711C15.8946 6.51957 15.9999 6.26522 15.9999 6V1Z" fill="white"/>
<path d="M6.71 9.28994C6.61704 9.19621 6.50644 9.12182 6.38458 9.07105C6.26272 9.02028 6.13201 8.99414 6 8.99414C5.86799 8.99414 5.73728 9.02028 5.61542 9.07105C5.49356 9.12182 5.38296 9.19621 5.29 9.28994L2 12.5699V9.99994C2 9.73472 1.89464 9.48037 1.70711 9.29283C1.51957 9.1053 1.26522 8.99994 1 8.99994C0.734784 8.99994 0.48043 9.1053 0.292893 9.29283C0.105357 9.48037 0 9.73472 0 9.99994V14.9999C0 15.2652 0.105357 15.5195 0.292893 15.707C0.48043 15.8946 0.734784 15.9999 1 15.9999H6C6.26522 15.9999 6.51957 15.8946 6.70711 15.707C6.89464 15.5195 7 15.2652 7 14.9999C7 14.7347 6.89464 14.4804 6.70711 14.2928C6.51957 14.1053 6.26522 13.9999 6 13.9999H3.42L6.71 10.7099C6.80373 10.617 6.87812 10.5064 6.92889 10.3845C6.97966 10.2627 7.0058 10.132 7.0058 9.99994C7.0058 9.86793 6.97966 9.73722 6.92889 9.61536C6.87812 9.4935 6.80373 9.3829 6.71 9.28994V9.28994Z" fill="white"/>
</svg>
